C:\OpenCap\opencap-processing\Data\f695a51c-2aed-4feb-b28d-2290ed51e9ec\OpenSimData\Dynamics\Javelin25_1\GRF_resultant_Javelin25_1_0.mot
version=1
nRows=29
nColumns=19
inDegrees=yes
endheader 
time	ground_force_right_vx	ground_force_right_vy	ground_force_right_vz	ground_force_right_px	ground_force_right_py	ground_force_right_pz	ground_torque_right_x	ground_torque_right_y	ground_torque_right_z	ground_force_left_vx	ground_force_left_vy	ground_force_left_vz	ground_force_left_px	ground_force_left_py	ground_force_left_pz	ground_torque_left_x	ground_torque_left_y	ground_torque_left_z	
          3.85000000	        -61.37456910	         20.25416022	         -6.42862570	         -4.48027476	          0.00000000	          0.13292685	          0.00000000	         -0.11039244	          0.00000000	        -70.82218073	         48.13910127	        -16.85051284	         -3.54578970	          0.00000000	         -0.19459676	          0.00000000	         -0.00034137	          0.00000000	
          3.86000000	        -58.60254447	         21.22335911	         -4.58453601	         -4.41976807	          0.00000000	          0.16472842	          0.00000000	         -0.26151491	          0.00000000	       -100.15661647	         74.40791331	        -17.07542765	         -3.53048260	          0.00000000	         -0.19115115	          0.00000000	          0.01038539	          0.00000000	
          3.87000000	        -49.72651806	         18.89196056	         -1.86187572	         -4.39945703	          0.00000000	          0.14160602	          0.00000000	         -0.05948253	          0.00000000	       -150.00918334	        125.50744325	        -11.01353807	         -3.49190444	          0.00000000	         -0.16822465	          0.00000000	          1.79616292	          0.00000000	
          3.88000000	        -33.07663328	         13.26342537	          0.59868118	         -4.37214514	          0.00000000	          0.12691398	          0.00000000	         -0.00791490	          0.00000000	         16.09035119	        568.21759656	        177.94960217	         -3.39025588	          0.00000000	         -0.09006217	          0.00000000	          7.13446252	          0.00000000	
          3.89000000	         -3.19161305	          1.54163435	          0.65553333	         -4.29553800	          0.00000000	          0.27707315	          0.00000000	         -0.07444736	          0.00000000	       -527.65795899	        469.75699945	       -260.30235601	         -3.38272582	          0.00000000	         -0.08485783	          0.00000000	          1.96885285	          0.00000000	
          3.90000000	          9.60979813	         -4.00362229	         -1.15104241	          0.00000000	          0.00000000	          0.00000000	          0.00000000	         -4.58572110	          0.00000000	       -501.75391659	        828.45236724	       -111.39631820	         -3.35682968	          0.00000000	         -0.06516094	          0.00000000	         26.17640855	          0.00000000	
          3.91000000	         13.88262167	         -6.03938451	         -3.02346151	          0.00000000	          0.00000000	          0.00000000	          0.00000000	        -12.14770830	          0.00000000	       -414.07266923	        759.46221245	        -63.32151400	         -3.34308876	          0.00000000	         -0.05660205	          0.00000000	         27.87365959	          0.00000000	
          3.92000000	         12.95404522	         -5.73364058	         -4.15651325	          0.00000000	          0.00000000	          0.00000000	          0.00000000	        -16.94846704	          0.00000000	       -311.30966931	        680.18710096	        -62.08816394	         -3.33611808	          0.00000000	         -0.05552565	          0.00000000	         24.78666164	          0.00000000	
          3.93000000	         11.65669480	         -5.12196687	         -4.67338282	          0.00000000	          0.00000000	          0.00000000	          0.00000000	        -19.15162009	          0.00000000	       -256.06323747	        566.65019405	        -44.93457618	         -3.33177582	          0.00000000	         -0.05578254	          0.00000000	         19.18797127	          0.00000000	
          3.94000000	         10.70826274	         -4.47110343	         -4.79728564	          0.00000000	          0.00000000	          0.00000000	          0.00000000	        -19.68171743	          0.00000000	       -189.80218962	        468.71364519	        -23.41549792	         -3.32884533	          0.00000000	         -0.05801820	          0.00000000	         16.09245745	          0.00000000	
          3.95000000	          9.81238536	         -3.83261582	         -4.47646143	          0.00000000	          0.00000000	          0.00000000	          0.00000000	        -18.36005994	          0.00000000	       -210.06373175	        475.91995296	        -57.16067161	         -3.32822147	          0.00000000	         -0.06421494	          0.00000000	         17.17382091	          0.00000000	
          3.96000000	          8.90282488	         -3.21111308	         -3.64056241	          0.00000000	          0.00000000	          0.00000000	          0.00000000	        -14.93235375	          0.00000000	       -253.42894712	        603.48059079	          4.97617397	         -3.32738670	          0.00000000	         -0.07254982	          0.00000000	         23.68469397	          0.00000000	
          3.97000000	          7.09580564	         -2.41095622	         -2.51296918	          0.00000000	          0.00000000	          0.00000000	          0.00000000	        -10.32450172	          0.00000000	       -360.50398915	        893.53108907	        -35.09542862	         -3.32542680	          0.00000000	         -0.10292147	          0.00000000	         38.14558911	          0.00000000	
          3.98000000	          0.00009970	         -0.00003252	         -0.00002484	          0.00000000	          0.00000000	          0.00000000	          0.00000000	         -0.00010314	          0.00000000	       -264.90913374	       1619.37517788	        214.28519701	         -3.32257846	          0.00000000	         -0.15258827	          0.00000000	        -28.23204260	          0.00000000	
          3.99000000	          0.00000535	         -0.00000175	         -0.00000097	          0.00000000	          0.00000000	          0.00000000	          0.00000000	         -0.00000411	          0.00000000	       -368.92464348	       2165.44861816	        268.71665824	         -3.31953377	          0.00000000	         -0.17222560	          0.00000000	        -38.47832374	          0.00000000	
          4.00000000	          0.00002117	         -0.00000695	         -0.00000244	          0.00000000	          0.00000000	          0.00000000	          0.00000000	         -0.00001073	          0.00000000	       -298.63367727	       2108.94091134	        287.08682665	         -3.31643599	          0.00000000	         -0.17894282	          0.00000000	        -45.15313441	          0.00000000	
          4.01000000	          0.00046359	         -0.00014838	         -0.00002761	          0.00000000	          0.00000000	          0.00000000	          0.00000000	         -0.00013538	          0.00000000	       -180.84784646	       1787.38644994	        204.18292699	         -3.31310437	          0.00000000	         -0.17395175	          0.00000000	        -41.31388102	          0.00000000	
          4.02000000	          0.23985373	         -0.07014086	          0.00650193	          0.00000000	          0.00000000	          0.00000000	          0.00000000	          0.00924339	          0.00000000	       -103.49631772	       1655.29408871	         99.32981254	         -3.30996562	          0.00000000	         -0.16496064	          0.00000000	        -37.62219948	          0.00000000	
          4.03000000	        -17.25753882	          4.57177223	         -1.93539403	         -3.72689429	          0.00000000	         -0.06009205	          0.00000000	         -0.00000000	          0.00000000	        -92.57568258	       1488.19027935	        161.21005032	         -3.30645833	          0.00000000	         -0.16429527	          0.00000000	        -31.46252033	          0.00000000	
          4.04000000	        -27.56376933	          6.91366551	         -4.59748566	         -3.66583656	          0.00000000	         -0.05203297	          0.00000000	          0.00000000	          0.00000000	        -14.42164041	       1015.42771015	       -164.36621204	         -3.28619057	          0.00000000	         -0.11529403	          0.00000000	        -24.53883150	          0.00000000	
          4.05000000	        -33.11176227	          8.24535736	         -7.27140320	         -3.60423118	          0.00000000	         -0.04093300	          0.00000000	          0.00000000	          0.00000000	          1.84095536	          4.45435864	         -3.64329543	         -3.35735312	          0.00000000	         -0.26888647	          0.00000000	          0.00000007	          0.00000000	
          4.06000000	        -43.68255850	         11.08512827	        -10.10426247	         -3.54325006	          0.00000000	         -0.02813512	          0.00000000	          0.00000000	          0.00000000	        172.17356157	       1063.11087915	         45.59765187	         -3.27264199	          0.00000000	         -0.12122745	          0.00000000	        -48.47181078	          0.00000000	
          4.07000000	        -46.08773106	         11.97178777	        -12.13563360	         -3.48349362	          0.00000000	         -0.01432365	          0.00000000	          0.00000000	          0.00000000	        -34.52711138	         25.69186327	         -0.16652420	         -3.23267493	          0.00000000	         -0.05236840	          0.00000000	         -0.04968119	          0.00000000	
          4.08000000	        -37.21217641	          9.84495031	        -10.43526538	         -3.42402444	          0.00000000	          0.00097497	          0.00000000	          0.00000000	          0.00000000	         -3.22103114	          2.32720403	          0.07548518	         -3.17776860	          0.00000000	         -0.08068735	          0.00000000	         -0.00000776	          0.00000000	
          4.09000000	        -12.68356390	          3.35725210	         -3.85649386	         -3.36317696	          0.00000000	          0.01799685	          0.00000000	          0.00000000	          0.00000000	         -1.67386962	          1.17469645	          0.02988554	         -3.15371108	          0.00000000	         -0.08643213	          0.00000000	         -0.00182233	          0.00000000	
          4.10000000	          0.00002734	         -0.00000717	          0.00000902	          0.00000000	          0.00000000	          0.00000000	          0.00000000	          0.00003080	          0.00000000	          0.00000006	         -0.00000004	         -0.00000001	          0.00000000	          0.00000000	          0.00000000	          0.00000000	         -0.00000004	          0.00000000	
          4.11000000	         -0.00000000	          0.00000000	         -0.00000000	         -3.23176377	          0.00000000	          0.11399186	          0.00000000	          0.00000000	          0.00000000	          0.00000000	         -0.00000000	         -0.00000000	          0.00000000	          0.00000000	          0.00000000	          0.00000000	         -0.00000000	          0.00000000	
          4.12000000	          0.00000000	         -0.00000000	          0.00000000	          0.00000000	          0.00000000	          0.00000000	          0.00000000	          0.00000000	          0.00000000	          0.00000000	         -0.00000000	         -0.00000000	          0.00000000	          0.00000000	          0.00000000	          0.00000000	         -0.00000000	          0.00000000	
          4.13000000	         -0.00000000	         -0.00000000	         -0.00000000	          0.00000000	          0.00000000	          0.00000000	          0.00000000	          0.00000000	          0.00000000	          0.00000000	         -0.00000000	         -0.00000000	          0.00000000	          0.00000000	          0.00000000	          0.00000000	         -0.00000000	          0.00000000	
